<svg id="Calque_1" xmlns="http://www.w3.org/2000/svg" viewBox="0 0 100 100"><style>.st0{fill:#312f2a}.st2{fill:#386025}.st3{fill:#92020e}.st5{fill:#a6c489}.st6{fill:#3c6728}.st7{fill:#fbb786}.st8{fill:#386026}.st9{fill:#19360c}</style><path class="st0" d="M31.346 88.495c2.923-.954 6.839-2.677 10.585-5.172 0 0 .836-.6 1.097-.822.869-.738 1.283-1.26 2.131-2.022.184-.166.534-.29.765-.24 4.54.981 9.145 1.464 13.772 1.753 3.227.202 6.451.24 9.645-.435.495-.105.786-.34.848-.799.118-.86.272-1.728.25-2.59-.072-2.786-.77-5.458-1.657-8.082-.156-.463-.153-.751.304-1.049.53-.345.996-.793 1.47-1.217 2.236-1.995 2.75-4.144 1.709-6.947-.079-.21-.048-.548.075-.731 1.446-2.173 1.857-4.521 1.318-7.065-.054-.258.066-.604.212-.844.528-.87 1.176-1.673 1.645-2.571 1.52-2.909 1.403-5.716-.698-8.335-.302-.376-.641-.72-.998-1.117.196-.12.344-.24.514-.308 1.477-.589 2.923-1.292 4.445-1.727 5.077-1.449 10.246-1.317 15.425-.676.963.119.973.095 1.08-.862.389-3.466-.64-6.549-2.506-9.406-.491-.754-1.036-1.472-1.56-2.213 2.003-.918 2.034-1.559.944-3.107-.693-.984-1.675-1.791-2.62-2.564-.792-.647-1.72-1.13-2.594-1.69.46-.38.93-.708 1.324-1.111.738-.757.771-1.412.177-2.282-.556-.814-1.33-1.363-2.213-1.769-1.51-.693-3.123-.945-4.762-1.078-.263-.022-.525-.051-.92-.09.459-.91.87-1.697 1.25-2.499.107-.223.122-.49.18-.737-.233.04-.478.045-.695.127-1.245.473-2.4.47-3.558-.337A42.408 42.408 0 0 0 73.73 5.4c-1.64-.89-3.392-1.527-5.304-1.318-1.94.211-3.86.135-5.778-.16-3.745-.576-7.29-1.807-10.738-3.343-.73-.326-.801-.304-.981.466-.182.78-.346 1.563-.51 2.307-1.213-.038-2.272-.108-3.33-.096-1.56.019-3.092.203-4.515.927-.417.213-.618.483-.533.956.142.794.25 1.595.411 2.385.284 1.384.599 2.76.862 3.964-1.312.788-2.578 1.444-3.729 2.261-2.095 1.489-3.716 3.476-5.362 5.422-.856 1.013-1.76 1.954-2.95 2.582a307.46 307.46 0 0 0-3.816 2.05c-.558.304-1.13.599-1.626.988-.198.156-.299.565-.265.836.021.168.36.36.59.427 1.976.577 3.995 1.027 5.933 1.71 3.536 1.246 6.685 3.14 9.146 6.04.932 1.098 1.713 2.292 2.3 3.637-.177.08-.29.137-.406.183-2.625 1.056-4.708 2.763-6.217 5.163-1.669 2.653-2.393 5.604-2.737 8.674-.062.56-.115 1.12-.178 1.727-3.226-1.025-6.34-.62-9.412.298-1.605.48-3.2 1.034-4.73 1.711-3.689 1.634-7.328 3.38-11.005 5.042m-.11.692c2.883-1.272 5.695-2.704 8.559-4.024 3.116-1.436 6.282-2.77 9.665-3.441 1.088-.216 2.228-.166 3.344-.238l.04-.045-.039.047c-.672 1.047-1.37 2.077-2.011 3.143-1.608 2.673-2.697 5.511-2.549 8.697.118 2.52 1.18 4.645 2.835 6.506 1.685 1.893 3.729 3.32 5.956 4.477 2.627 1.366 5.336 2.549 8.214 3.306.627.165 1.234.405 1.948.643a16.61 16.61 0 0 1-2.689 2.697m44.889-64.412c1.679 1.046 3.4 2.023 4.632 3.632.204.268.412.558.514.872.1.308.205.744.063.973-.281.452-.747.735-1.36.626-.23-.041-.513-.04-.715.058-6.216 3.028-12.306 6.27-17.724 10.628-2.146 1.727-4.06 3.676-5.588 5.984-.655.989-1.126 2.053-1.276 3.23-.073.58-.327.812-.893.766-.25-.02-.505.004-.801.008.133-.609.225-1.183.387-1.737.575-1.967 1.83-3.53 3.1-5.073 2.643-3.212 5.85-5.79 9.268-8.117 1.51-1.028 3.062-1.993 4.61-2.963.341-.214.494-.457.534-.858.133-1.343.425-2.639 1.323-3.714l.11-.149c.665-.852 1.578-1.253 2.606-1.464.165-.034.31-.169.464-.257-.083-.137-.158-.282-.253-.412-.16-.22-.39-.408-.491-.65-.162-.391-.27-.795.18-1.138.411-.313.702-.624 1.31-.245zm3.866 11.44c-.506.081-1.071.117-1.605.265-1.744.485-3.078 1.492-3.755 3.216-.232.59-.627.808-1.208.95-2.445.6-4.908 1.154-7.31 1.904-2.629.82-5.111 2.01-7.336 3.674-.502.376-.98.782-1.474 1.169-.171.134-.357.25-.535.373l-.13-.124c.23-.34.433-.7.693-1.015 1.53-1.851 3.257-3.516 5.198-4.914 2.675-1.927 5.385-3.817 8.189-5.547 2.37-1.463 4.894-2.677 7.352-3.998.108-.057.23-.088.314-.119l1.607 4.167zm-23.5 11.87l-.106.055c-.01-.03-.025-.06-.028-.09-.001-.011.036-.038.044-.034.029.014.053.039.09.069zm13.886-15.794c-.094.626-.43.934-.854 1.211-1.357.885-2.78 1.676-4.102 2.61-2.994 2.113-5.913 4.325-8.35 7.098-.037.042-.105.057-.158.084 4.632-6.75 10.616-12.174 16.903-17.42.163.315.326.54.39.791.034.128-.073.406-.175.44-2.5.83-3.31 2.872-3.654 5.186zm-.28-13.87c1.727.098 3.426.343 5.033 1.021.899.38 1.65.942 2.19 1.78.273.422.26.809-.033 1.173a5.401 5.401 0 0 1-.81.803c-2.408 1.947-4.881 3.817-7.224 5.839-4.155 3.585-8.07 7.419-11.418 11.79-1.998 2.607-3.754 5.358-4.868 8.474-.221.619-.372 1.263-.586 1.885-.049.14-.236.338-.345.33-.17-.013-.424-.147-.472-.288-.268-.779-.416-1.598.077-2.332 2.12-3.152 4.187-6.344 6.42-9.415 2.988-4.108 6.302-7.957 9.764-11.675.281-.301.336-.547.221-.954-.36-1.273-.209-2.502.507-3.639l-.012.008c.511-.848.992-1.716 1.544-2.536.417-.62.458-.592-.219-.879-.816-.346-1.166-1.382-.601-2.027-.056.713.434.62.831.642zm-2.65 8.61c.039.152-.095.392-.217.532-1.181 1.358-2.388 2.693-3.564 4.055a148.227 148.227 0 0 0-3.105 3.7c-1.328 1.643-2.655 3.289-3.92 4.98-1.037 1.388-1.985 2.844-2.967 4.273-.531.773-1.051 1.553-1.576 2.33l-.202-.115c.616-1.409 1.135-2.87 1.87-4.215 1.64-3.002 3.311-5.992 5.11-8.9 2.137-3.452 4.416-6.814 6.643-10.209.857-1.308 1.741-2.598 2.618-3.894.068-.1.174-.176.3-.3l1.035 1.115c-.493.85-1.033 1.662-1.453 2.531-.627 1.298-.94 2.662-.572 4.117zM51.508 1.053c1.153.462 2.222.914 3.308 1.321 3.904 1.463 7.895 2.503 12.112 2.372.847-.026 1.7-.169 2.538-.109 2.367.17 4.353 1.34 6.31 2.555.414.257.848.503 1.208.826 1.082.971 2.33 1.246 3.729 1.003l.146-.012-.053.14c-1.328 1.895-2.654 3.79-3.99 5.679-.064.09-.217.118-.329.175l-.52.98c-1.265 1.909-2.538 3.812-3.792 5.728-2.953 4.513-5.846 9.067-8.13 13.962-.867 1.856-1.52 3.818-2.178 5.763a5.74 5.74 0 0 0-.068 3.541l-1.283-.086a10.5 10.5 0 0 1 .797-4.275c2.816-6.899 6.212-13.489 10.406-19.656a61.357 61.357 0 0 1 1.786-2.48c.223-.296.228-.515-.028-.774-.208-.21-.366-.479-.593-.663-.64-.517-.792-1.09-.313-1.795.116-.17.195-.367.29-.552l.423-1.366.478-1.045.368-1.068.555-1.27.046-.233-.95-.361c.061-.363.137-.769.197-1.177.044-.298-.028-.444-.4-.468-1.163-.075-2.342-.11-3.477-.342-4.098-.84-8.183-1.75-12.27-2.643-.98-.213-.975-.23-1.369.717-.03.074-.08.14-.065.114l-5.399-2.18.51-2.321zm11.038 34.818c2.324-6.671 5.55-12.906 9.329-19.035.351.389.7.735.992 1.124.072.095.015.362-.072.491-1.294 1.934-2.643 3.832-3.895 5.793-.838 1.311-1.556 2.7-2.305 4.068-.72 1.315-1.43 2.638-2.11 3.975-.556 1.093-1.058 2.212-1.587 3.318-.053.11-.127.21-.192.314l-.16-.048zm9.995-26.708c-.602-.098-1.222-.095-1.82-.21a1067.54 1067.54 0 0 1-10.599-2.068c-.91-.183-1.805-.451-2.69-.735-.192-.062-.44-.362-.434-.545.012-.428.364-.363.671-.295 3.648.803 7.29 1.637 10.947 2.39 1.443.296 2.924.41 4.387.61.08.01.154.052.251.086.047.54-.058.874-.713.767zM41.99 33.871c-1.457-1.892-3.286-3.368-5.333-4.583-.287-.17-.552-.375-.827-.564l-.872-.342-.074-.131-1.25-.64c-.385-.095-.888.139-1.115-.399-.52-.152-1.035-.316-1.558-.455-1.455-.39-2.913-.768-4.37-1.152-.158-.042-.315-.092-.67-.196.41-.291.682-.527.991-.699 1.799-.998 3.662-1.892 5.387-3.003.956-.615 1.7-1.57 2.515-2.394 1.623-1.642 3.143-3.4 4.875-4.915 1.013-.886 2.32-1.469 3.56-2.045.58-.269.843-.473.607-1.09-.037-.095-.032-.207-.046-.312l-.048-.163c-.377-1.784-.746-3.57-1.134-5.351-.096-.44.034-.63.474-.772 4.433-1.43 8.633-1.014 12.695 1.332 1.188.686 2.58 1.083 3.926 1.418 4.535 1.13 9.105 2.101 13.766 2.568.103.01.204.044.391.085-.135.404-.245.803-.4 1.185-.74 1.826-1.49 3.65-2.248 5.468-.079.189-.238.343-.36.514l-.157.255c-1.136 2.04-2.317 4.055-3.4 6.122-2 3.82-3.886 7.698-5.324 11.774-.992 2.81-1.803 5.668-2.018 8.662-.005.081-.034.161-.058.27-.505-.25-.62-.59-.501-1.135 1.02-4.673 2.145-9.319 3.71-13.843 1.21-3.498 2.564-6.938 4.943-9.856.226-.278.297-.493-.099-.7-.918-.482-1.266-1.327-1.396-2.296-.2-1.482.079-2.92.41-4.352.276-1.189.322-1-.702-1.326-4.794-1.528-9.59-3.049-14.399-4.53-.906-.278-1.867-.41-2.813-.518-.795-.09-.931.132-.81.906.22 1.392.323 2.788-.016 4.178-.262 1.077-.831 1.913-1.94 2.249-.46.139-.425.41-.38.78.598 4.91 1.223 9.817 1.754 14.734.255 2.365.29 4.75-.058 7.12-.024.161.01.33.02.543-.102.03-.216.072-.333.098-.12.028-.242.041-.437.073-.075-1.224-.113-2.406-.226-3.58-.473-4.901-.923-9.806-1.484-14.698-.165-1.441-.669-2.844-1.014-4.266-.137-.563-.449-.663-.99-.487-2.08.674-3.663 2.03-5.064 3.63-1.547 1.768-2.775 3.755-3.869 5.826-.285.54-.215.62.398.698.503.063 1.016.132 1.497.287 1.534.492 2.442 1.672 2.333 3.464-.073 1.205.415 1.879 1.24 2.6 2.02 1.766 3.859 3.71 5.25 6.031.164.272.313.551.517.911l-1.138.328c-.815-1.167-1.527-2.276-2.328-3.316zm16.988 8.893c-.026.117-.082.228-.153.424-.777-.704-1.493-1.376-2.234-2.02-1.366-1.19-2.746-2.363-4.12-3.542-.017-.014-.038-.022-.05-.039-.91-1.203-2.252-1.496-3.625-1.708-.45-.07-.58-.28-.553-.735.08-1.306.208-2.62.132-3.921-.18-3.061-.422-6.12-.728-9.171-.21-2.104-.569-4.193-.861-6.288-.018-.126-.027-.254-.061-.376-.293-1.057-.255-1.893.969-2.442.448-.201.72-.959.92-1.517.508-1.426.474-2.914.301-4.398-.057-.492-.008-.801.62-.651 1.56.373 3.137.683 4.688 1.092 1.264.335 2.503.766 3.747 1.174 1.725.567 3.443 1.154 5.165 1.729.961.32 1.918.662 2.892.936.428.12.43.312.384.685-.178 1.465-.44 2.938-.414 4.403.02 1.079.423 2.16 1.555 2.816-1.53 1.835-2.574 3.895-3.448 6.029-.816 1.99-1.501 4.034-2.207 6.067-1.296 3.734-2.075 7.602-2.92 11.453zm-12.741-6.04c-.256-.217-.381-.276-.433-.374-1.228-2.333-2.969-4.254-4.858-6.056-.504-.48-1.036-.931-1.514-1.434a1.442 1.442 0 0 1-.341-.73c-.117-.726-.125-1.473-.275-2.19-.299-1.429-1.246-2.26-2.627-2.626-.419-.11-.846-.188-1.392-.308.451-.814.797-1.559 1.251-2.23.748-1.102 1.514-2.2 2.365-3.222 1.241-1.488 2.654-2.784 4.53-3.47.45-.165.711-.174.814.372.432 2.302.993 4.586 1.295 6.905.397 3.037.614 6.1.87 9.154.152 1.81.23 3.625.337 5.438.011.197-.01.396-.022.772zm-9.008 6.607c1.61-2.688 3.924-4.51 6.882-5.464 1.51-.487 3.077-.804 4.63-1.145.893-.196 1.687.068 2.444.622 3.153 2.304 5.948 4.998 8.647 7.801.206.214.39.457.62.64 1.38 1.091.842 3.731-.707 4.506-1.231.615-2.519.73-3.846.59-2.786-.293-5.274-1.418-7.664-2.8-.71-.411-.771-.378-.905.43-.887 5.34-2.078 10.596-4.379 15.535-.937 2.01-2.072 3.9-3.65 5.49-.118.12-.245.228-.412.382-3.766-3.328-5.576-7.4-5.078-12.388.12-1.199.458-2.375.64-3.57.166-1.09.233-2.194.385-3.287.362-2.587 1.035-5.074 2.393-7.342zm16.689 17.692c.404.532.947.96 1.377 1.385-.264.573-.528 1.119-.77 1.674-.62 1.425-.115 3.135 1.11 4.067 1.737 1.321 3.684 2.148 5.793 2.632.141.032.278.085.486.15-.052.242-.08.467-.152.677-.311.898-.618 1.797-.97 2.679-.07.176-.337.397-.507.393-2.427-.067-4.74-.648-6.887-1.77-1.021-.534-1.976-1.212-2.906-1.897-.945-.697-2.033-.883-3.133-1.065-.33-.055-.673-.034-1.174-.054.151-.31.26-.524.362-.742.605-1.288 1.27-2.593.623-4.04-.228-.508-.708-.916-1.116-1.326-.215-.216-.524-.338-.8-.509.944-2.784 1.903-5.512 2.789-8.263.505-1.57.92-3.173 1.315-4.775.133-.536.345-.668.826-.478.845.333 1.673.721 2.54.978 1.032.306 2.1.489 3.147.745.17.042.457.206.447.286-.103.887.248 1.603.872 2.283-.739.348-1.437.596-2.048.981-.96.604-1.929 1.227-2.268 2.437-.394 1.41.254 2.516 1.044 3.552zm11.662 16.51c-.14-.218-.103-.614-.029-.898.39-1.478.823-2.944 1.224-4.42.1-.367.162-.749.196-1.128.073-.799.06-.8.907-1.155-.05.856-.017 1.679-.158 2.47-.388 2.17-.834 4.33-1.304 6.484-.051.238-.372.504-.627.598-2.174.807-4.437.896-6.72.747-3.534-.232-7.003-.862-10.367-1.953-1.404-.455-2.718-1.19-4.069-1.808-.065-.03-.088-.154-.13-.233l-.796-.33-.22-.07.009.009c-.123-.022-.254-.024-.367-.069-.626-.25-1.247-.512-1.921-.79.288-.736.559-1.442.848-2.142.042-.101.159-.22.26-.242.655-.138 1.315-.251 1.974-.373l-.012.006.1-.006.867.042c.48.074.972.113 1.433.252.1.03.091.42.133.645l-.39 1.227c-.124.516-.214 1.044-.38 1.546-.15.455.003.686.425.802 1.513.415 3.006.944 4.545 1.218 4.135.736 8.312.898 12.502.577a11.83 11.83 0 0 0 1.758-.275c.357-.083.616-.255.31-.73zm-18.844-2.209c.229-.68.427-1.369.662-2.13 1.912 1.583 4.107 2.392 6.434 2.817 2.745.502 5.513.884 8.27 1.319.725.114 1.448.231 2.171.347l.012.176c-.387.063-.774.178-1.162.18-2.24.012-4.482.048-6.72-.021-2.826-.087-5.596-.609-8.334-1.297-.265-.067-.512-.21-.778-.262-.696-.138-.748-.553-.555-1.129zm18.077 1.89c-.718-.119-1.379-.233-2.042-.338-3.02-.478-6.063-.843-9.051-1.474-1.616-.341-3.147-1.112-4.694-1.743a2.95 2.95 0 0 1-1.115-.83c-.862-1.048-1.996-1.286-3.256-1.252-.209.006-.418-.024-.628-.038l-.85.208c-.704.278-1.407.557-2.112.834-.932.367-1.861.313-2.851-.028 1-1.135 1.25-2.695 2.431-3.717.59-.51.94-1.296 1.408-1.95.078-.108.205-.18.31-.27l.11-.398c2.982-5.49 4.37-11.476 5.413-17.567 1.106.289 1.26.482.935 1.53-1.15 3.71-2.332 7.411-3.507 11.114-.2.627-.414 1.25-.641 1.868-.136.369-.066.572.328.729 1.636.651 2.196 1.64 1.67 3.31-.34 1.078-.967 2.064-1.452 3.097-.09.194-.12.418-.177.628.203-.045.432-.044.605-.142.791-.448 1.615-.295 2.425-.136.92.18 1.74.546 2.507 1.151 2.939 2.322 6.365 3.31 10.064 3.478.376.017.557-.108.667-.496.278-.978.61-1.942.945-2.903.072-.207.245-.38.37-.569.168-.081.328-.213.502-.236.713-.093 1.429-.153 2.144-.225l1.188-.242c-.187 2.313-1.099 4.388-1.646 6.607zm-23.085-.022c-.222.303-.388.648-.624 1.05-.57-.199-1.16-.368-1.718-.607-1.572-.671-3.204-1.245-4.682-2.087-3.03-1.727-5.905-3.685-7.485-6.986-.776-1.622-1.038-3.33-.871-5.127.324-3.494 2.058-6.36 3.987-9.146.8-1.154.81-1.147 2.184-.848 1.208.263 1.165.256.967 1.487-.421 2.62-.682 5.258-.145 7.892.552 2.703 1.797 5.006 4.115 6.628.103.072.175.187.28.255 1.366.89 1.142 1.058.18 2.245-.736.907-.739.985.391 1.174.842.14 1.714.102 2.573.146.096.005.192.025.38.05-.246.596-.476 1.133-.69 1.676-.259.66-.171.794.534.863.043.004.084.013.126.019.968.13 1.098.494.498 1.316zm26.714-6.234c.006.014.004.031.004.048l-.041-.063c.013.005.034.006.037.014zm-1.567 8.677c.304-.148.786-.026 1.156.079.619.175.803.133.774-.51-.06-1.373-.085-2.766-.354-4.105-.279-1.385-.223-2.721-.004-4.081.422 1.696.957 3.374 1.229 5.094.205 1.302.086 2.657.087 3.988 0 .621-.344.9-.968 1.014-2.736.504-5.494.536-8.25.376-5.047-.295-10.079-.762-15.015-1.93-1.297-.307-2.575-.691-3.884-1.046l1.15-2.284c1.048.489 2.156.96 3.223 1.512 3.092 1.601 6.472 2.144 9.843 2.705 2.223.37 4.469.525 6.724.298 1.486-.149 2.926-.448 4.29-1.11zm.419-1.607c.172-.775.34-1.55.511-2.326l.26.047c.097 1.11.362 2.212.189 3.338-1.16-.014-1.186-.047-.96-1.06zM71.51 65.82c-1.786 2.45-4.069 4.277-7.221 4.642-1.619.188-3.185-.155-4.656-.81-1.12-.5-2.21-1.084-3.262-1.716-1.38-.828-1.86-2.337-1.27-3.835.182-.464.482-.88.753-1.363 5.724 2.715 10.856 1.365 15.788-1.862.743 1.705.978 3.423-.132 4.944zm1.287-7.784c-.49 1.304-1.251 2.335-2.523 3.06-3.198 1.824-6.527 2.992-10.261 2.39-2.33-.376-4.488-1.126-5.931-3.199-1.086-1.56-.96-3.165.606-4.222 1.052-.712 2.303-1.135 3.484-1.642.192-.083.495.037.728.117 3.272 1.115 6.592 1.476 9.94.44 1.206-.374 2.335-.995 3.494-1.514.226-.1.43-.251.71-.42.45 1.742.358 3.38-.247 4.99zm.892-17.116c2.566 2.571 2.886 5.426 1.247 8.73-1.613 3.254-4.46 4.518-7.736 5.146-3.308.634-6.463-.068-9.524-1.323-.518-.212-.822-.607-.78-1.188.031-.459.175-.805.761-.804.418 0 .845-.103 1.252-.214 2.518-.688 3.08-2.559 2.832-4.652-.042-.356-.387-.676-.6-1.026 1.4-.011 2.783.054 4.152-.06.87-.073 1.752-.33 2.57-.652.926-.365 1.394-1.168 1.403-2.167.003-.383.166-.5.472-.624 1.119-.455 2.22-.954 3.347-1.391.153-.06.461.082.604.225zm17.043-4.314c-4.898-.31-9.73-.023-14.365 1.778-1.104.429-2.318.766-3.22 1.477-1.235.973-2.693 1.276-4.046 1.888-.168.076-.373.3-.38.464-.086 1.742-.998 2.62-2.946 2.625.237-.504.377-.994.662-1.375 1.586-2.116 3.672-3.636 5.98-4.868 3.926-2.094 8.166-3.22 12.508-4.015.456-.084.682-.249.836-.7.817-2.378 2.576-3.516 5.371-3.549.24-.003.478-.081.717-.125-.097-.217-.16-.459-.296-.647-.88-1.213-1.391-2.575-1.638-4.038-.034-.197.16-.433.297-.77 1.982 2.331 3.5 4.662 4.217 7.442.055.215.03.452.042.679l.073.758c.065.069.187.136.188.206.013 1.03.01 2.06.012 3.14-1.444-.135-2.726-.289-4.012-.37z"/><circle cx="36.689" cy="67.565" r="32.047" fill="#f60"/><path class="st0" d="M34.88 28.243l.004.008.004.002zM60.545 81.49c-5.047-.295-10.079-.762-15.015-1.93-1.297-.307-2.575-.691-3.884-1.046l1.15-2.284c1.048.489 2.156.96 3.223 1.512 3.092 1.601 6.472 2.144 9.843 2.705 2.223.37 4.469.525 6.724.298 1.269-.127 2.504-.366 3.687-.845a32.24 32.24 0 0 0 1.99-6.853c.006-.676.074-1.35.184-2.03.023.095.048.188.072.282.103-.869.17-1.735.202-2.597-1.26.929-2.717 1.563-4.432 1.761-1.619.188-3.185-.155-4.656-.81a30.44 30.44 0 0 1-3.262-1.716c-1.38-.828-1.86-2.337-1.27-3.835.182-.464.482-.88.753-1.363 4.472 2.121 8.582 1.761 12.518-.036-.03-.192-.061-.383-.094-.574-2.592 1.196-5.3 1.836-8.265 1.358-2.33-.376-4.488-1.126-5.931-3.199-1.086-1.56-.96-3.165.606-4.222 1.052-.712 2.303-1.135 3.484-1.642.192-.083.495.037.728.117 2.469.841 4.964 1.252 7.48.959-.076-.183-.15-.366-.229-.548-2.928.32-5.74-.356-8.475-1.478-.518-.212-.822-.607-.78-1.188.031-.459.175-.805.761-.804.418 0 .845-.103 1.252-.214 2.097-.573 2.835-1.967 2.88-3.626-.21-.266-.425-.528-.644-.787.349 1.238-.243 2.857-1.4 3.436-1.23.615-2.519.73-3.846.59-2.786-.293-5.274-1.418-7.664-2.8-.71-.411-.771-.378-.905.43-.887 5.34-2.078 10.596-4.379 15.535-.937 2.01-2.072 3.9-3.65 5.49-.118.12-.245.228-.412.382-3.766-3.328-5.576-7.4-5.078-12.388.12-1.199.458-2.375.64-3.57.166-1.09.233-2.194.385-3.287.362-2.587 1.035-5.074 2.393-7.342 1.61-2.688 3.924-4.51 6.882-5.464.88-.284 1.78-.51 2.683-.716a32.29 32.29 0 0 0-1.417-.432c.026.047.05.091.079.14l-1.138.328c-.21-.3-.413-.597-.613-.89l-.139-.032a32.676 32.676 0 0 0-.7-.145c.244.425.468.864.668 1.322-.177.08-.29.137-.406.183-2.625 1.056-4.708 2.763-6.217 5.163-1.669 2.653-2.393 5.604-2.737 8.674-.062.56-.115 1.12-.178 1.727-3.226-1.025-6.34-.62-9.412.298-1.605.48-3.2 1.034-4.73 1.711-3.689 1.634-7.328 3.38-11.005 5.042a68.05 68.05 0 0 1-3.682 1.558c-.04.218-.078.436-.114.653a67.85 67.85 0 0 0 3.685-1.52c2.884-1.27 5.696-2.703 8.56-4.023 3.116-1.436 6.282-2.77 9.665-3.441 1.088-.216 2.228-.166 3.344-.238l.04-.045-.039.047c-.672 1.047-1.37 2.077-2.011 3.143-1.608 2.673-2.697 5.511-2.549 8.697.118 2.52 1.18 4.645 2.835 6.506 1.685 1.893 3.729 3.32 5.955 4.477 2.628 1.366 5.337 2.549 8.215 3.306.627.165 1.234.405 1.948.643a16.612 16.612 0 0 1-2.689 2.697l-30.153 5.125a32.093 32.093 0 0 0 3.88 3.998c6.51-.967 13.43-2.617 15.607-3.328 2.923-.954 6.839-2.677 10.585-5.172 0 0 .836-.6 1.097-.822.869-.738 1.283-1.26 2.131-2.022.184-.166.534-.29.765-.24 4.54.981 9.145 1.464 13.772 1.753 1.862.117 3.723.177 5.577.08.095-.188.187-.377.279-.567-1.666.106-3.337.082-5.007-.015zm7.897-10.532c.006.014.004.031.004.048l-.041-.063c.013.005.034.006.037.014zm-1.47.129c.072-.799.06-.8.906-1.155-.05.856-.017 1.679-.158 2.47a174.9 174.9 0 0 1-1.304 6.484c-.051.238-.372.504-.627.598-2.174.807-4.437.896-6.72.747-3.534-.232-7.003-.862-10.367-1.953-1.404-.455-2.718-1.19-4.069-1.808-.065-.03-.088-.154-.13-.233l-.796-.33-.22-.07.009.009c-.123-.022-.254-.024-.367-.069-.626-.25-1.247-.512-1.921-.79.288-.736.559-1.442.848-2.142.042-.101.159-.22.26-.242.655-.138 1.315-.251 1.974-.373l-.012.006.1-.006.867.042c.48.074.972.113 1.433.252.1.03.091.42.133.645l-.39 1.227c-.124.516-.214 1.044-.38 1.546-.15.455.003.686.425.802 1.513.415 3.006.944 4.545 1.218 4.135.736 8.312.898 12.502.577a11.83 11.83 0 0 0 1.758-.275c.357-.083.616-.255.31-.73-.142-.22-.104-.615-.03-.899.39-1.478.823-2.944 1.224-4.42.1-.367.162-.749.196-1.128zm-19.574 2.108c1.912 1.582 4.107 2.391 6.434 2.816 2.745.502 5.513.884 8.27 1.319.725.114 1.448.231 2.171.347l.012.176c-.387.063-.774.178-1.162.18-2.24.012-4.482.048-6.72-.021-2.826-.087-5.596-.609-8.334-1.297-.265-.067-.512-.21-.778-.262-.696-.138-.748-.553-.555-1.129.229-.68.427-1.369.662-2.13zm2.786-23.434c.845.333 1.673.721 2.54.978 1.032.306 2.1.489 3.147.745.17.042.457.206.447.286-.103.887.248 1.603.872 2.283-.739.348-1.437.596-2.048.981-.96.604-1.929 1.227-2.268 2.437-.394 1.41.254 2.516 1.044 3.552.404.532.947.96 1.377 1.385-.264.573-.528 1.119-.77 1.674-.62 1.425-.115 3.135 1.11 4.067 1.737 1.32 3.684 2.148 5.793 2.632.141.032.278.085.486.15-.052.242-.08.467-.152.677-.311.898-.618 1.797-.97 2.679-.07.176-.337.397-.507.393-2.427-.067-4.74-.648-6.887-1.77-1.021-.534-1.976-1.212-2.906-1.897-.945-.697-2.033-.883-3.133-1.065-.33-.055-.673-.034-1.174-.054.151-.31.26-.524.362-.742.605-1.288 1.27-2.593.623-4.04-.228-.508-.708-.916-1.116-1.326-.215-.216-.524-.338-.8-.509.944-2.784 1.903-5.512 2.788-8.263.506-1.57.92-3.173 1.316-4.775.133-.537.345-.668.826-.478zm-9.539 19.075c.59-.51.94-1.296 1.408-1.95.078-.108.205-.18.31-.27l.11-.398c2.982-5.49 4.37-11.476 5.413-17.567 1.106.289 1.26.482.935 1.53-1.15 3.71-2.332 7.411-3.507 11.114-.2.627-.414 1.25-.641 1.868-.136.369-.066.572.328.729 1.636.651 2.196 1.64 1.67 3.31-.34 1.078-.967 2.064-1.452 3.097-.09.194-.12.418-.177.628.203-.045.432-.044.605-.142.791-.448 1.615-.295 2.425-.136.92.18 1.74.546 2.507 1.151 2.939 2.322 6.365 3.31 10.064 3.478.376.017.557-.108.667-.496.278-.978.61-1.942.945-2.903.072-.207.245-.38.37-.569.168-.081.328-.213.502-.236.713-.093 1.429-.153 2.144-.225l1.188-.242c-.187 2.313-1.099 4.388-1.646 6.607-.718-.119-1.379-.233-2.042-.338-3.02-.478-6.063-.843-9.051-1.474-1.616-.341-3.147-1.112-4.694-1.743a2.95 2.95 0 0 1-1.115-.83c-.862-1.048-1.997-1.286-3.256-1.252-.209.006-.419-.024-.628-.038l-.85.208c-.704.278-1.407.557-2.112.834-.932.367-1.861.313-2.851-.028 1-1.135 1.25-2.695 2.431-3.717zm-1.26 8.8c-1.571-.672-3.203-1.246-4.68-2.088-3.032-1.727-5.906-3.685-7.486-6.986-.776-1.622-1.038-3.33-.871-5.127.324-3.494 2.058-6.36 3.987-9.146.8-1.154.81-1.147 2.184-.848 1.208.263 1.165.256.967 1.487-.421 2.62-.682 5.258-.145 7.892.552 2.703 1.797 5.006 4.115 6.628.103.072.175.187.28.255 1.366.89 1.142 1.058.18 2.245-.736.907-.739.985.391 1.174.842.14 1.714.102 2.573.146.096.005.192.025.38.05-.246.596-.476 1.133-.69 1.676-.258.66-.171.794.534.863.043.004.084.013.127.019.967.13 1.097.494.497 1.316-.222.303-.388.648-.624 1.05-.57-.199-1.16-.368-1.718-.607z"/><path class="st2" d="M67.552 19.215c-1.53 1.835-2.574 3.895-3.448 6.029-.816 1.99-1.501 4.034-2.207 6.067-1.296 3.734-2.075 7.602-2.92 11.453-.025.117-.08.228-.152.424-.777-.704-1.493-1.376-2.234-2.02-1.366-1.19-2.746-2.363-4.12-3.542-.017-.014-.038-.022-.05-.039-.91-1.203-2.252-1.496-3.625-1.708-.45-.07-.58-.28-.553-.735.08-1.306.208-2.62.132-3.921-.18-3.061-.423-6.12-.728-9.171-.21-2.104-.569-4.193-.861-6.288-.018-.126-.027-.254-.061-.376-.293-1.057-.255-1.893.969-2.442.448-.201.72-.959.92-1.517.508-1.426.474-2.914.301-4.398-.057-.492-.008-.801.62-.651 1.56.373 3.137.683 4.688 1.092 1.264.335 2.503.766 3.747 1.174 1.725.567 3.443 1.154 5.165 1.729.961.32 1.918.662 2.892.936.428.12.43.312.384.685-.178 1.465-.44 2.938-.414 4.403.02 1.078.423 2.16 1.555 2.816z"/><path class="st3" d="M34.538 76.054c-2.226-1.157-4.27-2.584-5.955-4.477-1.655-1.861-2.717-3.986-2.835-6.506-.148-3.186.941-6.024 2.549-8.697.64-1.066 1.34-2.096 2.011-3.143l-.001-.002c-1.116.072-2.256.022-3.344.238-3.383.672-6.549 2.005-9.665 3.441-2.864 1.32-5.676 2.752-8.56 4.024a67.854 67.854 0 0 1-3.685 1.52C3.258 73.494 7.38 84.276 15.22 91.363c9.153-1.356 13.63-2.291 18.357-4.223 4.91-2.007 8.43-4.438 8.43-4.438.991-.799 1.896-1.68 2.694-2.7-.714-.238-1.321-.478-1.948-.643-2.878-.757-5.587-1.94-8.215-3.306z"/><path d="M38.89 69.918c-3.767-3.328-5.577-7.4-5.079-12.388.12-1.199.458-2.375.64-3.57.166-1.09.233-2.194.385-3.287.362-2.587 1.035-5.074 2.393-7.342 1.61-2.688 3.924-4.51 6.882-5.464 1.51-.487 3.077-.804 4.63-1.145.893-.196 1.687.068 2.444.622 3.153 2.304 5.948 4.998 8.647 7.801.206.214.39.457.62.64 1.38 1.091.842 3.731-.707 4.506-1.23.615-2.519.73-3.846.59-2.786-.293-5.274-1.418-7.664-2.8-.71-.411-.771-.378-.905.43-.887 5.339-2.078 10.596-4.379 15.535-.937 2.01-2.072 3.9-3.65 5.49-.118.12-.245.228-.412.382z" fill="#fcb786"/><path class="st5" d="M43.761 10.788c-.376-1.784-.745-3.57-1.133-5.351-.096-.44.034-.63.474-.772 4.433-1.43 8.633-1.014 12.695 1.332 1.188.686 2.58 1.083 3.926 1.418 4.535 1.13 9.105 2.101 13.766 2.568.103.01.204.044.391.085-.135.404-.245.803-.4 1.185-.74 1.826-1.49 3.65-2.248 5.468-.079.189-.238.343-.36.514a67.56 67.56 0 0 0-.055-.072c.388-.948.338-1.155-.464-1.939.863-.311 1.174-.668 1.139-1.31-.034-.624-.482-1.102-1.311-1.266-.49-.097-1.032-.177-1.498-.06-.343.087-.769.464-.854.79-.092.358.147.812.28 1.211.039.118.21.192.367.326-.735.138-1.161.515-1.188 1.233-.023.611.353 1.058 1.114 1.287.742.224 1.494.358 2.216-.089l.098.144c-1.137 2.04-2.318 4.055-3.4 6.122-2.002 3.82-3.887 7.698-5.325 11.774-.992 2.81-1.803 5.668-2.018 8.661-.005.082-.034.162-.058.272-.505-.251-.62-.591-.501-1.136 1.02-4.673 2.145-9.319 3.71-13.843 1.21-3.498 2.564-6.938 4.943-9.856.226-.278.297-.493-.099-.7-.918-.482-1.266-1.327-1.396-2.296-.2-1.482.079-2.92.41-4.352.276-1.189.322-1-.702-1.326-4.794-1.528-9.59-3.049-14.399-4.53-.906-.278-1.867-.41-2.813-.518-.795-.09-.931.132-.81.906.22 1.392.323 2.788-.016 4.178-.262 1.077-.831 1.913-1.94 2.249-.46.139-.425.41-.38.78.598 4.91 1.223 9.817 1.754 14.734.255 2.365.29 4.75-.058 7.12-.024.161.01.33.02.543-.102.03-.216.072-.333.098-.12.028-.242.041-.437.073-.075-1.224-.113-2.406-.226-3.58-.473-4.901-.923-9.806-1.484-14.698-.165-1.441-.669-2.844-1.014-4.266-.137-.563-.449-.663-.99-.487-2.08.674-3.663 2.03-5.064 3.63-1.547 1.768-2.775 3.755-3.869 5.826-.285.54-.215.62.398.698.503.063 1.016.132 1.497.287 1.534.492 2.442 1.672 2.333 3.464-.073 1.205.415 1.879 1.24 2.6 2.02 1.765 3.859 3.71 5.25 6.031.164.272.313.551.517.911l-1.138.328c-.815-1.167-1.527-2.276-2.328-3.316-1.457-1.892-3.286-3.368-5.333-4.583-.287-.17-.552-.375-.827-.564 1.173.013 2.416-1.668 1.968-2.751-.14-.341-.54-.723-.884-.797-.464-.1-.988.08-1.484.14-.058-.81-.602-1.377-1.412-1.339-.79.037-1.186.591-1.496 1.22-.328.666-.583 1.343-.003 2.015-.52-.152-1.035-.316-1.558-.455-1.455-.39-2.913-.768-4.37-1.152-.158-.042-.315-.092-.67-.196.41-.291.682-.527.991-.699 1.799-.998 3.662-1.892 5.387-3.003.956-.615 1.7-1.57 2.515-2.394 1.623-1.642 3.143-3.4 4.875-4.915 1.013-.886 2.32-1.469 3.56-2.045.58-.269.843-.473.607-1.09-.037-.095-.032-.207-.046-.312l.125-.054c.678.886 2.475 1.069 3.31.338a1.195 1.195 0 0 0-.087-1.874c-.14-.102-.3-.176-.465-.271.773-.54.987-.981.8-1.595-.201-.663-.92-.979-2.039-.897-1.018.073-1.564.452-1.674 1.153-.119.748.34 1.137 1 1.453-.765.302-.954.846-.899 1.52-.04.02-.08.042-.12.064zM31.152 24.506c-.163.345-.35.796-.586 1.221-.185.335-.225.57.18.766.39.19.581.039.743-.307.368-.788.765-1.564 1.125-2.355.076-.166.124-.491.045-.547-.161-.115-.421-.143-.633-.123-.27.026-.549.098-.79.218-.254.125-.467.33-.698.5l.614.627zM70.22 11.263c-.416-.092-.91-.199-1.405-.31-.355-.08-.555.029-.617.416-.064.397.17.472.463.525.875.155 1.748.325 2.627.456.169.026.457-.052.517-.17.07-.138-.019-.386-.095-.561-.1-.23-.219-.472-.395-.639-.203-.191-.479-.305-.723-.453-.1.2-.2.398-.372.736zM45.726 5.185c-.502.027-1.056.022-1.596.106-.158.025-.39.31-.382.465.007.155.272.426.425.426.951 0 1.904-.053 2.854-.114.142-.009.367-.127.39-.231.035-.155-.034-.373-.135-.508-.173-.234-.376-.472-.62-.622-.236-.145-.539-.183-.813-.268l-.123.746z"/><path class="st6" d="M46.185 69.894c.151-.31.26-.524.362-.742.605-1.288 1.27-2.593.623-4.04-.228-.508-.708-.916-1.116-1.326-.215-.216-.524-.338-.8-.509.944-2.784 1.903-5.512 2.788-8.263.506-1.57.92-3.173 1.316-4.775.133-.536.345-.668.826-.478.845.333 1.673.721 2.54.978 1.032.306 2.1.489 3.147.745.17.042.457.206.447.286-.103.887.248 1.603.872 2.283-.739.348-1.437.596-2.048.981-.96.604-1.929 1.227-2.268 2.437-.394 1.41.254 2.516 1.044 3.552.404.532.947.96 1.377 1.385-.264.573-.528 1.119-.77 1.674-.62 1.425-.115 3.135 1.11 4.067 1.737 1.321 3.684 2.148 5.793 2.632.141.032.278.085.486.15-.052.242-.08.467-.152.677-.311.898-.618 1.798-.97 2.679-.07.176-.337.397-.507.393-2.427-.067-4.74-.648-6.887-1.77-1.021-.534-1.976-1.212-2.906-1.897-.945-.697-2.033-.883-3.133-1.065-.33-.055-.673-.034-1.174-.054z"/><path class="st3" d="M41.26 73.318c-.246.596-.476 1.133-.69 1.676-.258.66-.171.794.534.863.043.004.084.013.127.019.967.13 1.097.494.497 1.316-.222.303-.388.648-.624 1.05-.57-.199-1.16-.368-1.718-.607-1.572-.671-3.204-1.245-4.682-2.087-3.03-1.727-5.905-3.685-7.485-6.986-.776-1.622-1.038-3.33-.871-5.127.324-3.494 2.058-6.36 3.987-9.146.8-1.154.81-1.147 2.184-.848 1.208.263 1.165.256.967 1.486-.421 2.621-.682 5.26-.145 7.893.552 2.703 1.797 5.006 4.115 6.628.103.072.175.187.28.255 1.366.89 1.142 1.058.18 2.245-.736.907-.739.985.391 1.174.842.14 1.714.102 2.573.146.096.005.192.025.38.05z"/><path class="st7" d="M61.142 45.59c1.398-.011 2.782.054 4.151-.06.87-.073 1.752-.33 2.57-.652.926-.365 1.394-1.168 1.403-2.167.003-.383.166-.5.472-.624 1.119-.455 2.22-.954 3.347-1.391.153-.06.462.082.604.225 2.566 2.571 2.886 5.426 1.247 8.73-1.613 3.254-4.46 4.518-7.736 5.146-3.308.634-6.463-.068-9.524-1.323-.518-.212-.822-.606-.78-1.188.031-.46.175-.805.761-.804.418 0 .845-.103 1.252-.214 2.518-.688 3.08-2.559 2.832-4.652-.042-.356-.387-.676-.6-1.026z"/><path class="st7" d="M73.044 53.047c.45 1.742.358 3.38-.247 4.99-.49 1.304-1.251 2.335-2.523 3.06-3.198 1.824-6.527 2.992-10.261 2.39-2.33-.376-4.488-1.126-5.931-3.199-1.086-1.56-.96-3.165.606-4.222 1.052-.712 2.303-1.135 3.484-1.642.192-.083.495.037.728.117 3.272 1.115 6.592 1.476 9.94.44 1.206-.374 2.335-.995 3.494-1.514.226-.1.43-.251.71-.42z"/><path class="st2" d="M46.237 36.725c-.256-.218-.381-.277-.433-.375-1.228-2.333-2.969-4.254-4.858-6.056-.504-.48-1.036-.931-1.514-1.434a1.442 1.442 0 0 1-.341-.73c-.117-.726-.125-1.473-.275-2.19-.299-1.429-1.246-2.26-2.627-2.626-.419-.11-.846-.188-1.392-.308.451-.814.797-1.559 1.251-2.23.748-1.102 1.514-2.2 2.365-3.222 1.241-1.488 2.654-2.784 4.53-3.47.45-.165.711-.174.814.372.432 2.302.993 4.586 1.295 6.905.397 3.037.614 6.1.87 9.154.152 1.81.23 3.625.337 5.438.011.197-.01.396-.022.772z"/><path class="st7" d="M55.854 62.74c5.724 2.714 10.856 1.364 15.788-1.863.743 1.705.978 3.423-.132 4.944-1.786 2.45-4.069 4.277-7.221 4.643-1.619.187-3.185-.156-4.656-.811-1.12-.5-2.21-1.084-3.262-1.716-1.38-.828-1.86-2.337-1.27-3.835.182-.464.482-.88.753-1.363z"/><path class="st8" d="M67.414 41.155c.23-.34.433-.7.693-1.015 1.53-1.851 3.257-3.516 5.198-4.914 2.675-1.927 5.385-3.817 8.189-5.547 2.37-1.463 4.894-2.677 7.352-3.998.108-.058.23-.088.314-.119l1.607 4.167c-.506.08-1.071.116-1.605.264-1.744.485-3.078 1.492-3.755 3.216-.232.59-.627.808-1.208.95-2.445.6-4.908 1.154-7.31 1.904-2.629.82-5.111 2.01-7.336 3.674-.502.376-.98.782-1.474 1.169-.171.134-.357.25-.535.373l-.13-.124z"/><path class="st5" d="M43.177 71.747c-.704.278-1.407.557-2.112.834-.932.367-1.861.313-2.851-.028 1-1.135 1.25-2.695 2.431-3.717.59-.51.94-1.296 1.408-1.95.078-.108.205-.18.31-.27.115.153.2.391.351.443.456.158.933.266 1.41.351.377.067.765.072 1.148.104-.095-.36-.15-.738-.303-1.07-.088-.191-.328-.403-.52-.424-.14-.016-.314.261-.52.45l-1.456-.252c2.982-5.49 4.37-11.476 5.413-17.567 1.106.289 1.26.482.935 1.53-1.15 3.71-2.332 7.411-3.507 11.114-.2.627-.414 1.25-.641 1.868-.136.369-.066.572.328.729 1.636.651 2.196 1.64 1.67 3.31-.34 1.078-.967 2.064-1.452 3.097-.09.194-.12.418-.177.628.203-.045.432-.044.605-.142.791-.448 1.615-.295 2.425-.136.92.18 1.74.546 2.507 1.151 2.939 2.322 6.365 3.31 10.064 3.478.376.017.557-.108.667-.496.278-.978.61-1.942.945-2.903.072-.207.245-.38.37-.569.107.185.178.489.326.534a21.57 21.57 0 0 0 2.098.492c.158.03.453-.024.486-.113.06-.162-.019-.381-.06-.572-.058-.27-.135-.535-.204-.802l1.188-.242c-.187 2.313-1.099 4.388-1.646 6.607-.718-.12-1.379-.233-2.042-.338-3.02-.478-6.063-.843-9.051-1.474-1.616-.342-3.147-1.112-4.694-1.743a2.95 2.95 0 0 1-1.115-.83c-.862-1.048-1.996-1.286-3.256-1.252-.209.006-.418-.024-.627-.038.576-.55.598-.831.128-1.729.501-.217.874-.537.799-1.148-.074-.599-.517-.84-1.025-1.004-.14-.045-.283-.092-.429-.119-.566-.103-1.126-.118-1.489.432-.328.497-.156.968.226 1.431-.581.212-.951.569-.858 1.196.087.589.54.83 1.052.979.244.071.496.114.745.17zm21.248 2.903c.24-.201.601-.357.65-.581.081-.37.078-.853-.102-1.167-.293-.511-1.615-.843-2.146-.54-.313.179-.505.6-.696.944-.058.106.05.324.118.475.065.145.176.269.277.416-.557.181-.878.522-.855 1.083.024.563.41.853.9 1.028.179.064.36.13.546.16.56.093 1.117.118 1.49-.421.362-.525.153-.995-.182-1.397zM94.544 33.631c.065.069.187.136.188.206.013 1.03.01 2.06.012 3.14-1.444-.135-2.726-.289-4.012-.37-4.898-.31-9.73-.023-14.365 1.778-1.104.429-2.318.766-3.22 1.477-1.235.973-2.693 1.276-4.046 1.888-.168.076-.373.3-.38.464-.086 1.742-.998 2.62-2.946 2.625.237-.504.376-.994.662-1.375 1.586-2.116 3.672-3.636 5.98-4.868 3.926-2.094 8.166-3.22 12.508-4.015.456-.084.681-.249.836-.7.817-2.378 2.576-3.517 5.371-3.549.24-.003.478-.081.717-.125-.097-.217-.16-.459-.296-.647-.88-1.213-1.391-2.575-1.638-4.038-.034-.197.16-.433.297-.77 1.982 2.331 3.5 4.662 4.217 7.442.055.215.03.452.042.678l-.764-.283-.087.176c-.299-.513-.62-1.015-.89-1.543-.28-.543-.624-.635-1.196-.21.668 1.153 1.325 2.308 2.012 3.444.07.116.34.19.488.155.133-.032.254-.225.326-.373.09-.188.125-.403.184-.607zm-3.972 1.063c.143.09.283.186.43.271.473.277.98.385 1.428.015.45-.373.368-.915.132-1.35-.36-.665-.737-1.355-1.253-1.896-.872-.915-1.862-.607-2.168.616-.163-.103-.313-.221-.48-.299a2.202 2.202 0 0 0-.598-.201c-.632-.09-1.088.278-1.088.85 0 .917 1.127 2.63 1.964 2.978.79.329 1.631-.002 1.543-.926l.09-.058z"/><path class="st5" d="M83.085 22.454c.665-.852 1.578-1.253 2.606-1.464.165-.034.31-.169.464-.257-.083-.137-.158-.282-.253-.412-.16-.22-.39-.408-.491-.65-.162-.391-.27-.795.18-1.138.411-.313.702-.624 1.31-.245 1.679 1.046 3.4 2.023 4.632 3.632.204.268.412.558.514.872.1.308.205.744.063.973-.281.452-.747.735-1.36.626-.23-.041-.513-.04-.715.058-6.216 3.028-12.306 6.27-17.724 10.628-2.146 1.727-4.06 3.676-5.588 5.984-.655.989-1.126 2.053-1.276 3.23-.073.58-.327.812-.893.766-.25-.02-.505.004-.801.008.133-.609.225-1.183.387-1.737.575-1.967 1.83-3.53 3.1-5.073 2.643-3.212 5.85-5.79 9.268-8.117 1.51-1.028 3.062-1.993 4.61-2.963.341-.214.494-.457.534-.858.133-1.343.425-2.639 1.323-3.714l.077.102c.041.421-.048.923.152 1.248.359.584.851 1.105 1.361 1.573.449.412 1.026.606 1.655.391.608-.207.56-.742.528-1.254.254.11.442.21.642.27.493.15.979.165 1.34-.278.347-.423.19-.887-.08-1.237a13.124 13.124 0 0 0-1.565-1.725c-.424-.383-1.041-.543-1.535-.198-.31.217-.437.696-.664 1.09-.472-.263-1.086-.43-1.722-.026l-.08-.105zm4.065-1.549c.73.886 1.414 1.749 2.139 2.574.228.26.571.42.861.625.123-.282.246-.564.367-.847.016-.039.015-.087.037-.121.243-.394.093-.735-.242-.923-.211-.119-.529-.048-.934-.07-.275-.33-.669-.775-1.028-1.246-.357-.468-.71-.455-1.2.008z"/><path class="st8" d="M62.672 40.299c.616-1.409 1.135-2.87 1.87-4.215 1.64-3.002 3.311-5.992 5.11-8.9 2.137-3.452 4.416-6.814 6.643-10.209.857-1.308 1.741-2.598 2.618-3.894.068-.1.174-.176.3-.3l1.035 1.115c-.493.85-1.033 1.662-1.453 2.531-.627 1.298-.94 2.662-.572 4.117.039.152-.095.392-.217.532-1.181 1.358-2.388 2.693-3.564 4.055a148.231 148.231 0 0 0-3.105 3.7c-1.328 1.643-2.655 3.289-3.92 4.98-1.037 1.388-1.985 2.844-2.967 4.273-.531.773-1.051 1.553-1.576 2.33l-.202-.115z"/><path class="st5" d="M79.317 16.734c.511-.848.992-1.716 1.544-2.536.417-.62.458-.592-.219-.879-.816-.346-1.166-1.382-.601-2.027-.056.713.434.62.831.642 1.728.098 3.427.343 5.035 1.021.898.38 1.65.942 2.19 1.78.272.422.258.809-.034 1.173a5.402 5.402 0 0 1-.81.803c-2.408 1.947-4.881 3.817-7.224 5.839-4.155 3.585-8.07 7.419-11.418 11.79-1.998 2.607-3.754 5.358-4.868 8.474-.221.619-.372 1.263-.586 1.885-.049.14-.236.338-.345.33-.17-.013-.424-.147-.472-.288-.268-.779-.416-1.598.077-2.332 2.12-3.152 4.187-6.344 6.42-9.415 2.988-4.108 6.302-7.957 9.764-11.675.281-.301.336-.547.221-.954-.36-1.273-.209-2.502.507-3.639-.202.494-.224 1.016.235 1.328.71.483 1.462.923 2.244 1.273.524.235 1.167.143 1.502-.354.209-.31.135-.81.19-1.238.107.008.394.116.598.028.402-.173.885-.38 1.085-.719.12-.204-.127-.821-.387-1.016-.65-.488-1.362-.966-2.124-1.221-1.231-.412-1.934.331-1.664 1.422l-1.69.505zm3.162-2.684c1.062.648 2.078 1.29 3.12 1.887.219.125.533.084.804.12.014-.243.03-.486.04-.729.003-.084-.034-.172-.019-.252.09-.464-.14-.767-.553-.831-.236-.037-.506.15-.85.267-.383-.235-.883-.514-1.352-.839-.493-.342-.85-.273-1.19.377zM80.807 9.15c-1.329 1.894-2.655 3.79-3.991 5.678-.064.09-.217.118-.329.175l-.318-1.14c1.089-.122 1.635-1.03 1.076-1.88-.592-.904-2.179-1.293-3.116-.765l.556-1.27c1.03.463 2.044.97 3.1 1.365.345.13.487-.243.38-.587-.077-.24-.244-.465-.27-.707-.042-.403-.22-.689-.612-.65-.178.017-.328.328-.537.556-.393-.162-.865-.348-1.33-.55-.372-.16-.62-.105-.685.339l-.95-.361c.061-.363.137-.769.197-1.177.044-.298-.028-.444-.4-.468-1.163-.075-2.341-.11-3.476-.342-4.1-.84-8.184-1.75-12.272-2.643-.978-.213-.974-.23-1.368.717-.03.074-.08.14-.065.114l-5.399-2.18.51-2.321c1.153.462 2.222.914 3.308 1.321 3.904 1.463 7.895 2.503 12.112 2.372.847-.026 1.7-.169 2.538-.109 2.367.17 4.353 1.34 6.31 2.555.414.257.848.503 1.208.826 1.082.971 2.33 1.246 3.729 1.003.03.043.062.086.094.129zM68.445 71.012c.423 1.698.959 3.378 1.23 5.1.206 1.302.087 2.657.088 3.988 0 .621-.344.9-.968 1.014-2.736.504-5.494.536-8.25.376-5.047-.295-10.079-.762-15.015-1.93-1.297-.307-2.575-.691-3.884-1.046l1.15-2.284c1.048.489 2.156.96 3.223 1.512 3.092 1.601 6.472 2.144 9.843 2.705 2.223.37 4.469.525 6.724.298 1.486-.149 2.926-.448 4.29-1.11.303-.148.785-.026 1.155.079.619.175.803.133.774-.51-.06-1.373-.085-2.766-.354-4.105-.28-1.388-.223-2.726-.003-4.089l-.003.002z"/><path class="st5" d="M46.42 74.396c-.123.516-.213 1.044-.378 1.546-.15.455.002.686.424.802 1.513.415 3.007.944 4.545 1.218 4.135.736 8.312.898 12.502.577.59-.045 1.181-.141 1.758-.275.357-.083.616-.255.31-.73-.142-.22-.104-.615-.03-.899.39-1.478.823-2.944 1.224-4.42.1-.367.162-.749.196-1.128.073-.799.06-.8.907-1.155-.05.856-.017 1.679-.158 2.47-.388 2.17-.834 4.33-1.304 6.484-.051.238-.372.504-.627.598-2.174.807-4.437.896-6.72.747-3.534-.232-7.003-.862-10.367-1.953-1.404-.455-2.718-1.19-4.069-1.808-.065-.03-.088-.154-.13-.233.45.168.959.178 1.186-.243.206-.38.169-.893.252-1.435l.48-.163z"/><path class="st8" d="M67.69 36.807c4.631-6.75 10.615-12.174 16.902-17.42.163.315.326.54.39.791.034.128-.073.406-.175.44-2.5.83-3.31 2.872-3.654 5.186-.094.626-.43.934-.854 1.211-1.357.885-2.78 1.676-4.102 2.61-2.994 2.113-5.913 4.325-8.35 7.098-.037.042-.105.057-.158.084z"/><path class="st6" d="M47.398 73.195c1.912 1.582 4.107 2.391 6.434 2.816 2.745.502 5.513.884 8.27 1.319.725.114 1.448.231 2.171.347l.012.176c-.387.063-.774.178-1.162.18-2.24.012-4.482.048-6.72-.021-2.826-.087-5.596-.609-8.334-1.297-.265-.067-.512-.21-.778-.262-.696-.138-.748-.553-.555-1.129.229-.68.427-1.369.662-2.13z"/><path class="st5" d="M75.967 15.982c-1.265 1.91-2.538 3.813-3.792 5.73-2.953 4.512-5.846 9.066-8.13 13.96-.867 1.857-1.52 3.82-2.178 5.764a5.741 5.741 0 0 0-.068 3.541l-1.283-.086a10.5 10.5 0 0 1 .797-4.275c2.816-6.899 6.212-13.489 10.406-19.656a61.348 61.348 0 0 1 1.786-2.48c.223-.296.228-.515-.028-.774-.208-.21-.366-.479-.593-.663-.64-.517-.792-1.09-.313-1.795.116-.17.195-.367.29-.552.536 1.104 1.882 1.661 3.106 1.286z"/><path class="st8" d="M62.546 35.87c2.324-6.67 5.55-12.905 9.329-19.034.351.389.7.735.992 1.124.072.095.015.362-.072.491-1.294 1.934-2.643 3.832-3.895 5.793-.838 1.311-1.556 2.7-2.305 4.068-.72 1.315-1.43 2.638-2.11 3.975-.556 1.093-1.058 2.212-1.587 3.318-.053.11-.127.21-.192.314l-.16-.048zM73.254 8.396c.047.54-.058.874-.713.767-.602-.098-1.222-.095-1.82-.21-3.536-.674-7.07-1.357-10.599-2.068-.91-.183-1.805-.451-2.69-.735-.192-.062-.44-.362-.434-.545.012-.428.364-.363.671-.295 3.648.803 7.29 1.637 10.947 2.39 1.443.296 2.924.41 4.387.61.08.01.154.052.251.086z"/><path class="st9" d="M32.519 27.212c-.58-.672-.325-1.349.003-2.014.31-.63.705-1.184 1.496-1.22.81-.039 1.354.529 1.412 1.337.496-.06 1.02-.238 1.484-.139.343.074.743.456.884.797.448 1.083-.795 2.764-1.968 2.751l-.872-.342-.079-.14.009.01-.308-.943-.946.303c-.385-.096-.888.138-1.115-.4zm.664-1.051l.145.546c.191-.09.45-.132.558-.283.206-.284.362-.62.466-.957.05-.161-.065-.374-.106-.563-.173.088-.403.133-.507.272-.21.282-.354.616-.556.985zm3.72.378l-.213-.54c-.173.09-.41.137-.506.28a4.38 4.38 0 0 0-.492 1.018c-.048.14.072.335.116.505.163-.06.39-.074.476-.191.222-.302.382-.65.619-1.072zM75.967 15.982c-1.224.375-2.57-.182-3.106-1.286l.423-1.366.913-.162-.435-.883.367-1.067c.937-.528 2.524-.14 3.116.764.559.851.013 1.759-1.076 1.88l.318 1.14-.52.98zm-.707-4.14l-.588.178c.15.178.268.408.457.522.266.16.578.266.884.334.154.035.338-.063.509-.1-.097-.164-.156-.384-.299-.48-.26-.174-.568-.274-.963-.454zm-.238 3.382l.605-.204c-.138-.166-.244-.394-.421-.486-.333-.173-.702-.286-1.067-.382-.107-.028-.251.086-.378.135.053.127.072.311.167.37.32.199.669.352 1.094.567zM43.177 71.747c-.249-.056-.501-.099-.745-.17-.512-.15-.965-.39-1.052-.98-.093-.626.277-.983.858-1.195-.382-.463-.554-.934-.226-1.431.363-.55.923-.535 1.49-.432.145.027.287.074.428.12.508.164.95.404 1.025 1.003.075.61-.298.93-.799 1.148.47.898.448 1.18-.128 1.73-.284.068-.568.137-.851.207zm-.462-3.37l-.05.232 1.417.312.05-.233-1.417-.311zm.87 2.46l.05-.208-1.39-.305c-.015.07-.032.139-.048.208l1.389.305zM46.42 74.396l-.479.163c-.083.542-.046 1.055-.252 1.435-.227.421-.736.411-1.187.243l-.795-.33-.22-.07.009.009c-.804-.923-.649-1.544.52-2.012-.419-.62-.227-1.14.274-1.604l-.012.006a.126.126 0 0 1 .1-.006l.867.042 1.566.897-.39 1.227zm-.612-.57l.155-.323-1.261-.569-.145.31 1.251.582zm-.754 1.748l.137-.344-1.293-.508-.12.306 1.276.546z"/><path class="st5" d="M44.29 72.23c-.5.464-.693.984-.274 1.604-1.169.468-1.324 1.089-.52 2.012-.123-.022-.254-.024-.367-.069-.626-.25-1.247-.512-1.921-.79.288-.736.559-1.442.848-2.142.042-.101.159-.22.26-.242.655-.138 1.315-.251 1.974-.373z"/><path class="st9" d="M94.544 33.631c-.059.204-.094.419-.184.607-.072.148-.193.341-.326.373-.147.035-.418-.04-.488-.155-.687-1.136-1.344-2.291-2.012-3.444.572-.425.916-.333 1.196.21.27.528.591 1.03.89 1.543l.087-.176.764.283.073.76zM74.73 9.714c.066-.444.314-.5.686-.338.465.201.937.387 1.33.549.209-.228.359-.54.537-.557.391-.038.57.248.613.65.025.243.192.467.268.708.108.344-.034.716-.38.587-1.055-.395-2.069-.902-3.099-1.365l.046-.234zM65.27 70.85c.07.266.147.532.205.8.041.192.12.411.06.573-.033.089-.328.144-.486.113a21.576 21.576 0 0 1-2.098-.492c-.148-.045-.219-.35-.325-.534.167-.081.327-.213.501-.236.713-.093 1.429-.153 2.144-.225zM42.473 66.218l1.457.252c.205-.189.378-.466.519-.45.192.022.432.233.52.423.154.333.208.712.303 1.071-.383-.032-.771-.037-1.149-.104a9.304 9.304 0 0 1-1.409-.35c-.15-.053-.236-.29-.351-.444l.11-.398z"/><path class="st6" d="M68.066 75.75c.096 1.109.36 2.211.188 3.337-1.16-.014-1.186-.047-.96-1.06.172-.774.34-1.55.511-2.325l.26.047z"/><path class="st5" d="M33.634 27.612l.946-.303.308.944-1.254-.641zM46.81 73.17l-1.565-.898c.48.074.972.113 1.433.252.1.03.091.42.133.645zM73.762 12.285l.435.883-.913.162.478-1.045z"/><path class="st8" d="M67.267 41.598l-.106.055c-.01-.03-.025-.06-.028-.09-.001-.011.036-.038.044-.034.029.014.053.039.09.069z"/><path class="st5" d="M70.873 17.235l-.158.255-.097-.144.2-.183.055.072zM43.487 75.836zM34.88 28.243l.078.139-.079-.14zM80.713 9.02l.146-.011-.053.14-.093-.128zM68.448 71.01l-.043-.067c.013.005.034.006.037.015.007.015.003.035.003.054l.003-.002zM43.81 10.95l-.048-.162.12-.065.053.174-.125.054zM82.975 22.603l.11-.15.08.106-.113.146a27.764 27.764 0 0 1-.077-.102z"/><path class="st3" d="M30.307 53.229l.04-.045-.039.047-.001-.002z"/><path class="st5" d="M44.377 72.23a.126.126 0 0 0-.099.006l.1-.006z"/><path class="st9" d="M70.817 17.163l-.2.183c-.721.447-1.473.313-2.215.09-.76-.23-1.137-.677-1.114-1.288.027-.718.453-1.095 1.188-1.233-.157-.134-.328-.208-.367-.326-.133-.399-.372-.853-.28-1.21.085-.327.51-.704.854-.79.466-.118 1.008-.038 1.498.059.83.164 1.277.642 1.31 1.267.036.64-.275.998-1.138 1.31.802.783.852.99.464 1.938zm-1.48-2.895l.075-.089c.167.028.34.095.5.073.232-.031.455-.127.682-.195-.17-.154-.32-.34-.512-.452a.974.974 0 0 0-.55-.124c-.305.03-.605.128-.907.197l.712.59zm-1.196 1.82c.327.43 1.37.77 1.77.56.088-.046.15-.371.085-.442-.306-.337-1.396-.397-1.855-.118zM43.935 10.897l-.054-.174c-.055-.673.134-1.217.898-1.519-.66-.316-1.118-.705-1-1.453.111-.701.657-1.08 1.675-1.153 1.12-.082 1.838.234 2.04.897.186.614-.028 1.054-.801 1.595.165.095.325.17.465.271.63.459.669 1.365.088 1.874-.836.73-2.633.548-3.31-.338zm.687-3.06c.308.462 1.638.585 1.93.198.056-.074-.052-.406-.12-.418-.617-.113-1.24-.176-1.81.22zm.486 2.909c.46-.036.88-.047 1.293-.112.133-.022.243-.186.364-.285-.135-.108-.264-.302-.405-.31a6.403 6.403 0 0 0-1.254.06c-.124.016-.224.204-.334.314l.336.333zM31.152 24.506l-.614-.626c.231-.17.444-.376.697-.5.242-.12.522-.193.791-.219.212-.02.472.008.633.123.079.056.03.381-.045.547-.36.791-.757 1.567-1.125 2.355-.162.346-.353.497-.744.307-.404-.196-.364-.431-.179-.766.235-.425.423-.876.586-1.221zM70.22 11.263l.371-.736c.244.148.52.262.723.453.176.167.295.41.395.639.076.175.165.423.095.561-.06.118-.348.196-.517.17-.879-.13-1.752-.3-2.627-.456-.293-.053-.527-.128-.463-.525.062-.387.262-.495.617-.415.494.11.99.217 1.405.309zM45.726 5.185l.123-.746c.274.085.577.123.814.268.243.15.446.388.62.622.1.135.17.353.135.508-.024.104-.25.222-.39.231-.951.06-1.904.113-2.855.114-.153 0-.418-.27-.425-.426-.008-.156.224-.44.382-.465.54-.084 1.094-.08 1.596-.106zM64.425 74.65c.335.402.544.872.182 1.397-.373.54-.93.514-1.49.422-.186-.03-.367-.097-.546-.16-.49-.176-.876-.466-.9-1.03-.023-.56.298-.9.855-1.082-.1-.147-.212-.271-.277-.416-.068-.15-.176-.369-.118-.475.19-.344.383-.765.696-.944.531-.303 1.853.029 2.146.54.18.314.183.796.102 1.167-.049.224-.41.38-.65.581zm-1.883.439l-.052.234 1.414.311.051-.235-1.413-.31zm1.807-1.393l.053-.247c-.448-.192-.892-.409-1.404-.262l-.042.202 1.393.307zM90.482 34.752c.088.924-.754 1.255-1.543.926-.837-.349-1.964-2.061-1.964-2.979 0-.571.456-.939 1.088-.85.205.03.407.114.598.202.167.078.317.196.48.3.306-1.224 1.296-1.532 2.168-.617.516.541.892 1.231 1.253 1.896.236.435.318.977-.132 1.35-.447.37-.955.262-1.429-.015-.146-.085-.286-.18-.43-.27l-.121-.039.032.096zm1.238-.57c-.319-.817-.548-1.55-1.331-2.009-.05.816.596 1.823 1.331 2.009zm-3.604-1.305c-.015.729.629 1.737 1.202 1.884.027-.736-.61-1.733-1.202-1.884zM83.052 22.705l.112-.146c.636-.404 1.25-.237 1.722.026.227-.394.354-.873.664-1.09.494-.345 1.11-.185 1.535.198.574.518 1.09 1.112 1.564 1.725.27.35.428.815.082 1.237-.362.443-.848.428-1.341.279-.2-.061-.388-.162-.642-.27.031.511.08 1.046-.528 1.253-.629.215-1.206.02-1.655-.39-.51-.469-1.002-.99-1.361-1.574-.2-.325-.11-.827-.152-1.248zm4.715 1.327c-.235-.861-.96-1.627-1.541-1.667.136.739.864 1.55 1.541 1.667zm-2.114 1.073c-.269-1.003-1.015-1.777-1.676-1.746.41.715.78 1.382 1.676 1.746zM87.15 20.905c.49-.463.843-.476 1.2-.008.359.471.753.915 1.028 1.246.405.022.723-.049.934.07.335.188.485.53.242.923-.022.034-.02.082-.037.12-.121.284-.244.566-.367.848-.29-.206-.633-.365-.861-.625-.725-.825-1.408-1.688-2.14-2.574zM79.317 16.734l1.691-.505c-.27-1.09.433-1.834 1.664-1.422.762.255 1.473.733 2.124 1.221.26.195.508.812.387 1.016-.2.34-.683.546-1.085.719-.204.088-.491-.02-.598-.028-.055.428.019.929-.19 1.238-.335.497-.978.59-1.502.354a14.71 14.71 0 0 1-2.244-1.273c-.459-.312-.437-.834-.235-1.328l-.012.008zm2.61-1c.682.596 1.248 1.101 2.137 1.164-.295-.717-1.36-1.324-2.138-1.163zm.509 2.804c-.47-.829-1.482-1.372-2.145-1.16.603.587 1.192 1.047 2.145 1.16zM82.479 14.05c.34-.65.697-.719 1.19-.377.469.325.97.604 1.352.84.344-.117.614-.305.85-.268.414.064.643.367.553.83-.015.08.022.17.019.253-.01.243-.026.486-.04.729-.27-.036-.585.005-.804-.12-1.042-.597-2.058-1.239-3.12-1.887z"/><path class="st5" d="M33.183 26.16c.202-.368.345-.702.556-.984.104-.14.334-.184.507-.272.04.19.156.402.106.563-.104.337-.26.673-.466.957-.108.15-.367.193-.558.283l-.145-.546zM36.903 26.539c-.237.421-.397.77-.619 1.072-.086.117-.313.13-.476.191-.044-.17-.164-.366-.116-.505.12-.356.285-.706.492-1.019.095-.142.333-.19.506-.28.075.192.15.384.213.54zM75.26 11.842c.395.18.704.28.963.454.143.096.202.316.299.48-.17.037-.355.135-.51.1a2.992 2.992 0 0 1-.883-.334c-.19-.114-.307-.344-.457-.522l.588-.178zM75.022 15.224c-.425-.215-.773-.368-1.094-.566-.095-.06-.114-.244-.167-.37.127-.05.271-.164.378-.136.365.096.734.21 1.067.382.177.092.283.32.421.486l-.605.204zM42.715 68.377l1.417.311-.05.233-1.417-.312.05-.232zM43.586 70.837l-1.389-.305.049-.208 1.389.305-.05.208zM45.808 73.826l-1.251-.582.145-.31 1.26.57c-.05.107-.102.214-.154.322zM45.054 75.574l-1.277-.546.12-.306 1.294.508-.137.344zM69.337 14.268l-.712-.59c.302-.07.602-.167.908-.197a.974.974 0 0 1 .549.124c.193.112.343.298.512.452-.227.068-.45.164-.682.195-.16.022-.333-.045-.5-.073l-.075.09zM68.14 16.088c.46-.28 1.55-.219 1.856.118.065.07.004.396-.084.442-.401.21-1.444-.13-1.771-.56zM44.622 7.837c.57-.396 1.193-.332 1.81-.22.068.012.176.344.12.418-.291.387-1.622.264-1.93-.198zM45.108 10.746l-.336-.333c.11-.11.21-.298.334-.315a6.403 6.403 0 0 1 1.254-.059c.14.008.27.202.405.31-.12.1-.231.263-.364.285-.412.065-.833.076-1.293.112zM62.542 75.089l1.413.31-.051.235-1.414-.31.052-.235zM64.35 73.696l-1.394-.307.042-.202c.512-.147.956.07 1.404.262l-.053.247zM91.72 34.182c-.735-.186-1.38-1.193-1.331-2.009.783.459 1.012 1.192 1.331 2.009zM88.116 32.877c.592.15 1.229 1.148 1.202 1.884-.573-.147-1.217-1.155-1.202-1.884zM90.482 34.752l-.032-.096.122.038c-.03.02-.06.04-.09.058zM87.767 24.032c-.677-.118-1.405-.928-1.541-1.667.58.04 1.306.806 1.541 1.667zM85.653 25.105c-.896-.364-1.265-1.031-1.676-1.746.661-.031 1.407.743 1.676 1.746zM81.926 15.735c.778-.161 1.843.446 2.138 1.163-.889-.063-1.455-.568-2.138-1.163zM82.436 18.538c-.953-.113-1.542-.573-2.145-1.16.663-.212 1.675.331 2.145 1.16z"/></svg>